<mxfile host="app.diagrams.net" agent="Mozilla/5.0 (Windows NT 10.0; Win64; x64) AppleWebKit/537.36 (KHTML, like Gecko) Chrome/130.0.0.0 Safari/537.36" version="24.8.1">
  <diagram id="prtHgNgQTEPvFCAcTncT" name="Page-1">
    <mxGraphModel dx="3871" dy="1404" grid="1" gridSize="10" guides="1" tooltips="1" connect="1" arrows="1" fold="1" page="1" pageScale="1" pageWidth="827" pageHeight="1169" math="0" shadow="0">
      <root>
        <mxCell id="0" />
        <mxCell id="1" parent="0" />
        <mxCell id="dNxyNK7c78bLwvsdeMH5-11" value="Mutiny Systems - Organigrama" style="swimlane;html=1;startSize=20;horizontal=1;containerType=tree;glass=0;labelBackgroundColor=none;rounded=0;" parent="1" vertex="1">
          <mxGeometry x="-460" y="80" width="1720" height="580" as="geometry">
            <mxRectangle x="40" y="80" width="110" height="30" as="alternateBounds" />
          </mxGeometry>
        </mxCell>
        <UserObject label="Elena Sanchis&lt;br&gt;&lt;font color=&quot;#808080&quot;&gt;&lt;i&gt;CEO&lt;/i&gt;&lt;/font&gt;" name="Tessa Miller" position="CFO" location="Office 1" email="me@example.com" placeholders="1" link="https://www.draw.io" id="dNxyNK7c78bLwvsdeMH5-12">
          <mxCell style="label;image=https://cdn3.iconfinder.com/data/icons/user-avatars-1/512/users-3-128.png;whiteSpace=wrap;html=1;rounded=0;glass=0;treeMoving=1;treeFolding=1;labelBackgroundColor=none;fillColor=#ffe6cc;strokeColor=#d79b00;" parent="dNxyNK7c78bLwvsdeMH5-11" vertex="1">
            <mxGeometry x="770" y="40" width="180" height="70" as="geometry" />
          </mxCell>
        </UserObject>
        <mxCell id="dNxyNK7c78bLwvsdeMH5-13" value="" style="endArrow=blockThin;endFill=1;fontSize=11;edgeStyle=elbowEdgeStyle;elbow=vertical;rounded=0;labelBackgroundColor=none;fontColor=default;" parent="dNxyNK7c78bLwvsdeMH5-11" source="dNxyNK7c78bLwvsdeMH5-12" target="dNxyNK7c78bLwvsdeMH5-14" edge="1">
          <mxGeometry relative="1" as="geometry" />
        </mxCell>
        <UserObject label="Carlos Alfonso&lt;div&gt;&lt;font color=&quot;#808080&quot;&gt;&lt;i&gt;Director de Marketing&lt;/i&gt;&lt;/font&gt;&lt;br&gt;&lt;/div&gt;" name="Edward Morrison" position="Brand Manager" location="Office 2" email="me@example.com" placeholders="1" link="https://www.draw.io" id="dNxyNK7c78bLwvsdeMH5-14">
          <mxCell style="label;image=https://cdn3.iconfinder.com/data/icons/user-avatars-1/512/users-10-3-128.png;whiteSpace=wrap;html=1;rounded=0;glass=0;treeFolding=1;treeMoving=1;labelBackgroundColor=none;fillColor=#fff2cc;strokeColor=#d6b656;" parent="dNxyNK7c78bLwvsdeMH5-11" vertex="1">
            <mxGeometry x="80" y="185" width="194" height="80" as="geometry" />
          </mxCell>
        </UserObject>
        <mxCell id="dNxyNK7c78bLwvsdeMH5-15" value="" style="endArrow=blockThin;endFill=1;fontSize=11;edgeStyle=elbowEdgeStyle;elbow=vertical;rounded=0;labelBackgroundColor=none;fontColor=default;exitX=0.5;exitY=1;exitDx=0;exitDy=0;" parent="dNxyNK7c78bLwvsdeMH5-11" source="dNxyNK7c78bLwvsdeMH5-12" target="dNxyNK7c78bLwvsdeMH5-16" edge="1">
          <mxGeometry relative="1" as="geometry">
            <mxPoint x="1024" y="125.00000000000006" as="sourcePoint" />
          </mxGeometry>
        </mxCell>
        <UserObject label="José Ramírez&lt;br&gt;&lt;div&gt;&lt;font color=&quot;#808080&quot;&gt;&lt;i&gt;Jefe de Logística&lt;/i&gt;&lt;/font&gt;&lt;/div&gt;" name="Evan Valet" position="HR Director" location="Office 4" email="me@example.com" placeholders="1" link="https://www.draw.io" id="dNxyNK7c78bLwvsdeMH5-16">
          <mxCell style="label;image=https://cdn3.iconfinder.com/data/icons/user-avatars-1/512/users-9-2-128.png;whiteSpace=wrap;html=1;rounded=0;glass=0;treeFolding=1;treeMoving=1;labelBackgroundColor=none;fillColor=#dae8fc;strokeColor=#6c8ebf;" parent="dNxyNK7c78bLwvsdeMH5-11" vertex="1">
            <mxGeometry x="770" y="185" width="180" height="80" as="geometry" />
          </mxCell>
        </UserObject>
        <mxCell id="T0OU9hSGY2hTBpNF0slO-18" value="" style="endArrow=blockThin;endFill=1;fontSize=11;edgeStyle=elbowEdgeStyle;elbow=vertical;rounded=0;labelBackgroundColor=none;fontColor=default;exitX=0.5;exitY=1;exitDx=0;exitDy=0;" parent="dNxyNK7c78bLwvsdeMH5-11" target="T0OU9hSGY2hTBpNF0slO-19" edge="1" source="dNxyNK7c78bLwvsdeMH5-12">
          <mxGeometry relative="1" as="geometry">
            <mxPoint x="1251" y="155" as="sourcePoint" />
          </mxGeometry>
        </mxCell>
        <UserObject label="Luís Costa&lt;br&gt;&lt;font color=&quot;#808080&quot;&gt;&lt;i&gt;Director Financiero&lt;/i&gt;&lt;/font&gt;" name="Evan Valet" position="HR Director" location="Office 4" email="me@example.com" placeholders="1" link="https://www.draw.io" id="T0OU9hSGY2hTBpNF0slO-19">
          <mxCell style="label;image=https://cdn3.iconfinder.com/data/icons/user-avatars-1/512/users-9-2-128.png;whiteSpace=wrap;html=1;rounded=0;glass=0;treeFolding=1;treeMoving=1;labelBackgroundColor=none;fillColor=#f8cecc;strokeColor=#b85450;" parent="dNxyNK7c78bLwvsdeMH5-11" vertex="1">
            <mxGeometry x="1100" y="185" width="180" height="80" as="geometry" />
          </mxCell>
        </UserObject>
        <mxCell id="T0OU9hSGY2hTBpNF0slO-34" value="" style="endArrow=blockThin;endFill=1;fontSize=11;edgeStyle=elbowEdgeStyle;elbow=vertical;rounded=0;labelBackgroundColor=none;fontColor=default;exitX=0.518;exitY=0.996;exitDx=0;exitDy=0;exitPerimeter=0;entryX=0.5;entryY=0;entryDx=0;entryDy=0;" parent="dNxyNK7c78bLwvsdeMH5-11" edge="1" target="TrFS2Kcg2CYsMdXAW9ty-12">
          <mxGeometry relative="1" as="geometry">
            <mxPoint x="177.2420000000002" y="264.99999999999994" as="sourcePoint" />
            <mxPoint x="176.75" y="310" as="targetPoint" />
          </mxGeometry>
        </mxCell>
        <mxCell id="OrQCqj91jotXMx3GbjZq-5" value="" style="endArrow=blockThin;endFill=1;fontSize=11;edgeStyle=elbowEdgeStyle;elbow=vertical;rounded=0;labelBackgroundColor=none;fontColor=default;exitX=0.5;exitY=1;exitDx=0;exitDy=0;entryX=0.5;entryY=0;entryDx=0;entryDy=0;" parent="dNxyNK7c78bLwvsdeMH5-11" source="T0OU9hSGY2hTBpNF0slO-19" edge="1" target="TrFS2Kcg2CYsMdXAW9ty-16">
          <mxGeometry relative="1" as="geometry">
            <mxPoint x="1257" y="275" as="sourcePoint" />
            <mxPoint x="1196" y="310" as="targetPoint" />
          </mxGeometry>
        </mxCell>
        <UserObject label="&lt;div&gt;Laura Calvo&lt;/div&gt;&lt;div&gt;&lt;font color=&quot;#808080&quot;&gt;&lt;i&gt;Coordinadora de Post-Venta&lt;/i&gt;&lt;/font&gt;&lt;/div&gt;" name="Edward Morrison" position="Brand Manager" location="Office 2" email="me@example.com" placeholders="1" link="https://www.draw.io" id="TrFS2Kcg2CYsMdXAW9ty-6">
          <mxCell style="label;image=https://cdn3.iconfinder.com/data/icons/user-avatars-1/512/users-3-128.png;whiteSpace=wrap;html=1;rounded=0;glass=0;treeFolding=1;treeMoving=1;labelBackgroundColor=none;fillColor=#e3c800;strokeColor=#B09500;align=left;verticalAlign=middle;spacingLeft=52;spacing=2;fontFamily=Helvetica;fontSize=12;fontColor=#000000;fontStyle=1;" vertex="1" parent="dNxyNK7c78bLwvsdeMH5-11">
            <mxGeometry x="520" y="320" width="164" height="80" as="geometry" />
          </mxCell>
        </UserObject>
        <UserObject label="&lt;div&gt;Sofía Cabrera&lt;/div&gt;&lt;div&gt;&lt;font color=&quot;#808080&quot;&gt;&lt;i&gt;Coordinadora de Transporte&lt;/i&gt;&lt;/font&gt;&lt;/div&gt;" name="Edward Morrison" position="Brand Manager" location="Office 2" email="me@example.com" placeholders="1" link="https://www.draw.io" id="TrFS2Kcg2CYsMdXAW9ty-7">
          <mxCell style="label;image=https://cdn3.iconfinder.com/data/icons/user-avatars-1/512/users-3-128.png;whiteSpace=wrap;html=1;rounded=0;glass=0;treeFolding=1;treeMoving=1;labelBackgroundColor=none;fillColor=#dae8fc;strokeColor=#6c8ebf;" vertex="1" parent="dNxyNK7c78bLwvsdeMH5-11">
            <mxGeometry x="690" y="320" width="164" height="80" as="geometry" />
          </mxCell>
        </UserObject>
        <UserObject label="&lt;div&gt;Elena Monteiro&lt;/div&gt;&lt;div&gt;&lt;i style=&quot;color: rgb(128, 128, 128);&quot;&gt;Especialista en Relaciones Públicas&lt;/i&gt;&lt;/div&gt;" name="Edward Morrison" position="Brand Manager" location="Office 2" email="me@example.com" placeholders="1" link="https://www.draw.io" id="TrFS2Kcg2CYsMdXAW9ty-10">
          <mxCell style="label;image=https://cdn3.iconfinder.com/data/icons/user-avatars-1/512/users-3-128.png;whiteSpace=wrap;html=1;rounded=0;glass=0;treeFolding=1;treeMoving=1;labelBackgroundColor=none;fillColor=#fff2cc;strokeColor=#d6b656;align=left;verticalAlign=middle;spacingLeft=52;spacing=2;fontFamily=Helvetica;fontSize=12;fontColor=default;fontStyle=1;" vertex="1" parent="dNxyNK7c78bLwvsdeMH5-11">
            <mxGeometry x="180" y="320" width="164" height="80" as="geometry" />
          </mxCell>
        </UserObject>
        <UserObject label="&lt;div&gt;Lucas Santos&lt;/div&gt;&lt;div&gt;&lt;i style=&quot;color: rgb(128, 128, 128);&quot;&gt;Agente de Atención al Cliente&lt;/i&gt;&lt;/div&gt;" name="Edward Morrison" position="Brand Manager" location="Office 2" email="me@example.com" placeholders="1" link="https://www.draw.io" id="TrFS2Kcg2CYsMdXAW9ty-11">
          <mxCell style="label;image=https://cdn3.iconfinder.com/data/icons/user-avatars-1/512/users-1-128.png;whiteSpace=wrap;html=1;rounded=0;glass=0;treeFolding=1;treeMoving=1;labelBackgroundColor=none;fillColor=#e3c800;strokeColor=#B09500;align=left;verticalAlign=middle;spacingLeft=52;spacing=2;fontFamily=Helvetica;fontSize=12;fontColor=#000000;fontStyle=1;" vertex="1" parent="dNxyNK7c78bLwvsdeMH5-11">
            <mxGeometry x="350" y="320" width="164" height="80" as="geometry" />
          </mxCell>
        </UserObject>
        <UserObject label="Carlos Mendes&lt;div&gt;&lt;font color=&quot;#808080&quot;&gt;&lt;i&gt;Analista de Marketing Digital&lt;/i&gt;&lt;/font&gt;&lt;/div&gt;" name="Edward Morrison" position="Brand Manager" location="Office 2" email="me@example.com" placeholders="1" link="https://www.draw.io" id="TrFS2Kcg2CYsMdXAW9ty-12">
          <mxCell style="label;image=https://cdn3.iconfinder.com/data/icons/user-avatars-1/512/users-1-128.png;whiteSpace=wrap;html=1;rounded=0;glass=0;treeFolding=1;treeMoving=1;labelBackgroundColor=none;fillColor=#fff2cc;strokeColor=#d6b656;align=left;verticalAlign=middle;spacingLeft=52;spacing=2;fontFamily=Helvetica;fontSize=12;fontColor=default;fontStyle=1;" vertex="1" parent="dNxyNK7c78bLwvsdeMH5-11">
            <mxGeometry x="10" y="320" width="164" height="80" as="geometry" />
          </mxCell>
        </UserObject>
        <UserObject label="Clara Ramos&lt;div&gt;&lt;font color=&quot;#808080&quot;&gt;&lt;i&gt;Coordinadora de Formación&lt;/i&gt;&lt;/font&gt;&lt;/div&gt;" name="Edward Morrison" position="Brand Manager" location="Office 2" email="me@example.com" placeholders="1" link="https://www.draw.io" id="TrFS2Kcg2CYsMdXAW9ty-14">
          <mxCell style="label;image=https://cdn3.iconfinder.com/data/icons/user-avatars-1/512/users-3-128.png;whiteSpace=wrap;html=1;rounded=0;glass=0;treeFolding=1;treeMoving=1;labelBackgroundColor=none;fillColor=#d5e8d4;strokeColor=#82b366;align=left;verticalAlign=middle;spacingLeft=52;spacing=2;fontFamily=Helvetica;fontSize=12;fontColor=default;fontStyle=1;" vertex="1" parent="dNxyNK7c78bLwvsdeMH5-11">
            <mxGeometry x="1540" y="320" width="164" height="80" as="geometry" />
          </mxCell>
        </UserObject>
        <UserObject label="Martín Gutiérrez&lt;div&gt;&lt;font color=&quot;#808080&quot;&gt;&lt;i&gt;Analista Financiero&lt;/i&gt;&lt;/font&gt;&lt;/div&gt;" name="Edward Morrison" position="Brand Manager" location="Office 2" email="me@example.com" placeholders="1" link="https://www.draw.io" id="TrFS2Kcg2CYsMdXAW9ty-16">
          <mxCell style="label;image=https://cdn3.iconfinder.com/data/icons/user-avatars-1/512/users-1-128.png;whiteSpace=wrap;html=1;rounded=0;glass=0;treeFolding=1;treeMoving=1;labelBackgroundColor=none;fillColor=#f8cecc;strokeColor=#b85450;align=left;verticalAlign=middle;spacingLeft=52;spacing=2;fontFamily=Helvetica;fontSize=12;fontColor=default;fontStyle=1;" vertex="1" parent="dNxyNK7c78bLwvsdeMH5-11">
            <mxGeometry x="1200" y="320" width="164" height="80" as="geometry" />
          </mxCell>
        </UserObject>
        <UserObject label="&lt;div&gt;Diego Martínez&lt;/div&gt;&lt;div&gt;&lt;font color=&quot;#808080&quot;&gt;&lt;i&gt;Especialista en Reclutamiento&lt;/i&gt;&lt;/font&gt;&lt;/div&gt;" name="Edward Morrison" position="Brand Manager" location="Office 2" email="me@example.com" placeholders="1" link="https://www.draw.io" id="TrFS2Kcg2CYsMdXAW9ty-17">
          <mxCell style="label;image=https://cdn3.iconfinder.com/data/icons/user-avatars-1/512/users-1-128.png;whiteSpace=wrap;html=1;rounded=0;glass=0;treeFolding=1;treeMoving=1;labelBackgroundColor=none;fillColor=#d5e8d4;strokeColor=#82b366;align=left;verticalAlign=middle;spacingLeft=52;spacing=2;fontFamily=Helvetica;fontSize=12;fontColor=default;fontStyle=1;" vertex="1" parent="dNxyNK7c78bLwvsdeMH5-11">
            <mxGeometry x="1370" y="320" width="164" height="80" as="geometry" />
          </mxCell>
        </UserObject>
        <UserObject label="&lt;div&gt;Paco Ibáñez&lt;/div&gt;&lt;div&gt;&lt;i style=&quot;color: rgb(128, 128, 128);&quot;&gt;Contable&lt;/i&gt;&lt;/div&gt;" name="Edward Morrison" position="Brand Manager" location="Office 2" email="me@example.com" placeholders="1" link="https://www.draw.io" id="TrFS2Kcg2CYsMdXAW9ty-18">
          <mxCell style="label;image=https://cdn3.iconfinder.com/data/icons/user-avatars-1/512/users-1-128.png;whiteSpace=wrap;html=1;rounded=0;glass=0;treeFolding=1;treeMoving=1;labelBackgroundColor=none;fillColor=#f8cecc;strokeColor=#b85450;align=left;verticalAlign=middle;spacingLeft=52;spacing=2;fontFamily=Helvetica;fontSize=12;fontColor=default;fontStyle=1;" vertex="1" parent="dNxyNK7c78bLwvsdeMH5-11">
            <mxGeometry x="1030" y="320" width="164" height="80" as="geometry" />
          </mxCell>
        </UserObject>
        <mxCell id="TrFS2Kcg2CYsMdXAW9ty-20" value="" style="endArrow=blockThin;endFill=1;fontSize=11;edgeStyle=elbowEdgeStyle;elbow=vertical;rounded=0;labelBackgroundColor=none;fontColor=default;exitX=0.5;exitY=1;exitDx=0;exitDy=0;entryX=0.5;entryY=0;entryDx=0;entryDy=0;" edge="1" parent="dNxyNK7c78bLwvsdeMH5-11" source="dNxyNK7c78bLwvsdeMH5-14" target="TrFS2Kcg2CYsMdXAW9ty-10">
          <mxGeometry relative="1" as="geometry">
            <mxPoint x="187.2420000000002" y="274.99999999999994" as="sourcePoint" />
            <mxPoint x="102" y="330" as="targetPoint" />
          </mxGeometry>
        </mxCell>
        <UserObject label="Mónica Duarte&lt;div&gt;&lt;i style=&quot;color: rgb(128, 128, 128);&quot;&gt;Jefa de At. Cliente&lt;/i&gt;&lt;/div&gt;" name="Tessa Miller" position="CFO" location="Office 1" email="me@example.com" placeholders="1" link="https://www.draw.io" id="TrFS2Kcg2CYsMdXAW9ty-21">
          <mxCell style="label;image=https://cdn3.iconfinder.com/data/icons/user-avatars-1/512/users-3-128.png;whiteSpace=wrap;html=1;rounded=0;glass=0;treeMoving=1;treeFolding=1;labelBackgroundColor=none;fillColor=#e3c800;strokeColor=#B09500;fontColor=#000000;" vertex="1" parent="dNxyNK7c78bLwvsdeMH5-11">
            <mxGeometry x="420" y="185" width="186" height="80" as="geometry" />
          </mxCell>
        </UserObject>
        <mxCell id="TrFS2Kcg2CYsMdXAW9ty-22" value="" style="endArrow=blockThin;endFill=1;fontSize=11;edgeStyle=elbowEdgeStyle;elbow=vertical;rounded=0;labelBackgroundColor=none;fontColor=default;exitX=0.518;exitY=0.996;exitDx=0;exitDy=0;exitPerimeter=0;entryX=0.5;entryY=0;entryDx=0;entryDy=0;" edge="1" parent="dNxyNK7c78bLwvsdeMH5-11">
          <mxGeometry relative="1" as="geometry">
            <mxPoint x="513.2420000000002" y="264.99999999999994" as="sourcePoint" />
            <mxPoint x="428" y="320" as="targetPoint" />
          </mxGeometry>
        </mxCell>
        <mxCell id="TrFS2Kcg2CYsMdXAW9ty-23" value="" style="endArrow=blockThin;endFill=1;fontSize=11;edgeStyle=elbowEdgeStyle;elbow=vertical;rounded=0;labelBackgroundColor=none;fontColor=default;exitX=0.5;exitY=1;exitDx=0;exitDy=0;entryX=0.5;entryY=0;entryDx=0;entryDy=0;" edge="1" parent="dNxyNK7c78bLwvsdeMH5-11">
          <mxGeometry relative="1" as="geometry">
            <mxPoint x="513" y="265" as="sourcePoint" />
            <mxPoint x="598" y="320" as="targetPoint" />
          </mxGeometry>
        </mxCell>
        <mxCell id="TrFS2Kcg2CYsMdXAW9ty-24" value="" style="endArrow=blockThin;endFill=1;fontSize=11;edgeStyle=elbowEdgeStyle;elbow=vertical;rounded=0;labelBackgroundColor=none;fontColor=default;exitX=0.5;exitY=1;exitDx=0;exitDy=0;entryX=0.5;entryY=0;entryDx=0;entryDy=0;" edge="1" parent="dNxyNK7c78bLwvsdeMH5-11" source="dNxyNK7c78bLwvsdeMH5-12" target="TrFS2Kcg2CYsMdXAW9ty-21">
          <mxGeometry relative="1" as="geometry">
            <mxPoint x="907.24" y="130" as="sourcePoint" />
            <mxPoint x="907" y="170" as="targetPoint" />
          </mxGeometry>
        </mxCell>
        <mxCell id="TrFS2Kcg2CYsMdXAW9ty-25" value="" style="endArrow=blockThin;endFill=1;fontSize=11;edgeStyle=elbowEdgeStyle;elbow=vertical;rounded=0;labelBackgroundColor=none;fontColor=default;exitX=0.48;exitY=0.984;exitDx=0;exitDy=0;exitPerimeter=0;entryX=0.5;entryY=0;entryDx=0;entryDy=0;" edge="1" parent="dNxyNK7c78bLwvsdeMH5-11" source="dNxyNK7c78bLwvsdeMH5-16" target="TrFS2Kcg2CYsMdXAW9ty-7">
          <mxGeometry relative="1" as="geometry">
            <mxPoint x="854.2420000000002" y="264.99999999999994" as="sourcePoint" />
            <mxPoint x="769" y="320" as="targetPoint" />
          </mxGeometry>
        </mxCell>
        <mxCell id="TrFS2Kcg2CYsMdXAW9ty-26" value="" style="endArrow=blockThin;endFill=1;fontSize=11;edgeStyle=elbowEdgeStyle;elbow=vertical;rounded=0;labelBackgroundColor=none;fontColor=default;exitX=0.483;exitY=0.984;exitDx=0;exitDy=0;entryX=0.5;entryY=0;entryDx=0;entryDy=0;exitPerimeter=0;" edge="1" parent="dNxyNK7c78bLwvsdeMH5-11" source="dNxyNK7c78bLwvsdeMH5-16" target="TrFS2Kcg2CYsMdXAW9ty-38">
          <mxGeometry relative="1" as="geometry">
            <mxPoint x="854" y="265" as="sourcePoint" />
            <mxPoint x="939" y="320" as="targetPoint" />
          </mxGeometry>
        </mxCell>
        <mxCell id="TrFS2Kcg2CYsMdXAW9ty-29" value="" style="endArrow=blockThin;endFill=1;fontSize=11;edgeStyle=elbowEdgeStyle;elbow=vertical;rounded=0;labelBackgroundColor=none;fontColor=default;exitX=0.5;exitY=1;exitDx=0;exitDy=0;entryX=0.5;entryY=0;entryDx=0;entryDy=0;" edge="1" parent="dNxyNK7c78bLwvsdeMH5-11" source="T0OU9hSGY2hTBpNF0slO-19" target="TrFS2Kcg2CYsMdXAW9ty-18">
          <mxGeometry relative="1" as="geometry">
            <mxPoint x="1170.24" y="270" as="sourcePoint" />
            <mxPoint x="1170" y="310" as="targetPoint" />
          </mxGeometry>
        </mxCell>
        <UserObject label="Carlos Serrano&lt;div&gt;&lt;font color=&quot;#808080&quot;&gt;&lt;i&gt;Director de RRHH&lt;/i&gt;&lt;/font&gt;&lt;/div&gt;" name="Edward Morrison" position="Brand Manager" location="Office 2" email="me@example.com" placeholders="1" link="https://www.draw.io" id="TrFS2Kcg2CYsMdXAW9ty-30">
          <mxCell style="label;image=https://cdn3.iconfinder.com/data/icons/user-avatars-1/512/users-1-128.png;whiteSpace=wrap;html=1;rounded=0;glass=0;treeFolding=1;treeMoving=1;labelBackgroundColor=none;fillColor=#d5e8d4;strokeColor=#82b366;align=left;verticalAlign=middle;spacingLeft=52;spacing=2;fontFamily=Helvetica;fontSize=12;fontColor=default;fontStyle=1;" vertex="1" parent="dNxyNK7c78bLwvsdeMH5-11">
            <mxGeometry x="1455" y="185" width="164" height="80" as="geometry" />
          </mxCell>
        </UserObject>
        <mxCell id="TrFS2Kcg2CYsMdXAW9ty-31" value="" style="endArrow=blockThin;endFill=1;fontSize=11;edgeStyle=elbowEdgeStyle;elbow=vertical;rounded=0;labelBackgroundColor=none;fontColor=default;entryX=0.5;entryY=0;entryDx=0;entryDy=0;exitX=0.5;exitY=1;exitDx=0;exitDy=0;" edge="1" parent="dNxyNK7c78bLwvsdeMH5-11" source="dNxyNK7c78bLwvsdeMH5-12" target="TrFS2Kcg2CYsMdXAW9ty-30">
          <mxGeometry relative="1" as="geometry">
            <mxPoint x="1060" y="140" as="sourcePoint" />
            <mxPoint x="1550" y="170" as="targetPoint" />
          </mxGeometry>
        </mxCell>
        <mxCell id="TrFS2Kcg2CYsMdXAW9ty-32" value="" style="endArrow=blockThin;endFill=1;fontSize=11;edgeStyle=elbowEdgeStyle;elbow=vertical;rounded=0;labelBackgroundColor=none;fontColor=default;entryX=0.5;entryY=0;entryDx=0;entryDy=0;exitX=0.5;exitY=1;exitDx=0;exitDy=0;" edge="1" parent="dNxyNK7c78bLwvsdeMH5-11" source="TrFS2Kcg2CYsMdXAW9ty-30" target="TrFS2Kcg2CYsMdXAW9ty-14">
          <mxGeometry relative="1" as="geometry">
            <mxPoint x="1550" y="270" as="sourcePoint" />
            <mxPoint x="1620" y="330" as="targetPoint" />
          </mxGeometry>
        </mxCell>
        <mxCell id="TrFS2Kcg2CYsMdXAW9ty-33" value="" style="endArrow=blockThin;endFill=1;fontSize=11;edgeStyle=elbowEdgeStyle;elbow=vertical;rounded=0;labelBackgroundColor=none;fontColor=default;exitX=0.5;exitY=1;exitDx=0;exitDy=0;entryX=0.5;entryY=0;entryDx=0;entryDy=0;" edge="1" parent="dNxyNK7c78bLwvsdeMH5-11" source="TrFS2Kcg2CYsMdXAW9ty-30" target="TrFS2Kcg2CYsMdXAW9ty-17">
          <mxGeometry relative="1" as="geometry">
            <mxPoint x="1528" y="275" as="sourcePoint" />
            <mxPoint x="1450" y="330" as="targetPoint" />
          </mxGeometry>
        </mxCell>
        <UserObject label="&lt;div&gt;Marcela Ríos&lt;/div&gt;&lt;div&gt;&lt;font color=&quot;#808080&quot;&gt;&lt;i&gt;Coordinadora de Reservas&lt;/i&gt;&lt;/font&gt;&lt;/div&gt;" name="Edward Morrison" position="Brand Manager" location="Office 2" email="me@example.com" placeholders="1" link="https://www.draw.io" id="TrFS2Kcg2CYsMdXAW9ty-38">
          <mxCell style="label;image=https://cdn3.iconfinder.com/data/icons/user-avatars-1/512/users-3-128.png;whiteSpace=wrap;html=1;rounded=0;glass=0;treeFolding=1;treeMoving=1;labelBackgroundColor=none;fillColor=#dae8fc;strokeColor=#6c8ebf;" vertex="1" parent="dNxyNK7c78bLwvsdeMH5-11">
            <mxGeometry x="860" y="320" width="164" height="80" as="geometry" />
          </mxCell>
        </UserObject>
      </root>
    </mxGraphModel>
  </diagram>
</mxfile>
